# xmcd CD database file
#
# Track frame offsets:
#	150
#	27439
#	50117
#	82997
#	98872
#	118147
#	129486
#	138557
#	161233
#	179375
#	190715
#	215659
#	237203
#	251943
#	271076
#	286100
#
# Disc length: 3995 seconds
#
# Revision: 2
# Processed by: cddbd v1.5.2PL0 Copyright (c) Steve Scherf et al.
# Submitted via: CDex 1.70beta2
#
DISCID=ef0f9910
DTITLE=Rasmus Faber - Love：Mixed
DYEAR=2008
DGENRE=Jazz
TTITLE0=Ever After [2008 Remix]
TTITLE1=Demanda [RaFa Trio Remix]
TTITLE2=Alibi [Rasmus Faber Remix]
TTITLE3=What It Feels Like [Danny Krivit Re-Edit]
TTITLE4=Stalk You [Mocha Remix]
TTITLE5=Alibi [RaFa Epic Dub]
TTITLE6=Skyline [Mocha Remix]
TTITLE7=Can’t Take My Eyes Off You [Rasmus Faber Remix]
TTITLE8=Somewhere Beyond [Club Vocal Mix]
TTITLE9=Brighter Dayss [Haji ＆ Emanuel Dub]
TTITLE10=Nitelife [Seamus Haji Remix - RaFa Edit]
TTITLE11=Grysor
TTITLE12=Lovelee Home
TTITLE13=S2 [Tiger Stripes Remix]
TTITLE14=I’m In Love [Rasmus Faber Epic Remix]
TTITLE15=In This Life [Extended Mix]
EXTD=YEAR: 2008
EXTT0=
EXTT1=
EXTT2=
EXTT3=
EXTT4=
EXTT5=
EXTT6=
EXTT7=
EXTT8=
EXTT9=
EXTT10=
EXTT11=
EXTT12=
EXTT13=
EXTT14=
EXTT15=
PLAYORDER=
